<mxfile host="app.diagrams.net" agent="Mozilla/5.0 (Windows NT 10.0; Win64; x64) AppleWebKit/537.36 (KHTML, like Gecko) Chrome/134.0.0.0 Safari/537.36" version="26.1.3">
  <diagram name="Página-1" id="AwdVmaXJvkfjlbvvyelJ">
    <mxGraphModel dx="1290" dy="557" grid="1" gridSize="10" guides="1" tooltips="1" connect="1" arrows="1" fold="1" page="1" pageScale="1" pageWidth="827" pageHeight="1169" math="0" shadow="0">
      <root>
        <mxCell id="0" />
        <mxCell id="1" parent="0" />
        <mxCell id="vun-Wb9-s5xzh4HGfUBB-5" value="" style="edgeStyle=orthogonalEdgeStyle;rounded=0;orthogonalLoop=1;jettySize=auto;html=1;" parent="1" source="vun-Wb9-s5xzh4HGfUBB-1" target="vun-Wb9-s5xzh4HGfUBB-3" edge="1">
          <mxGeometry relative="1" as="geometry" />
        </mxCell>
        <mxCell id="vun-Wb9-s5xzh4HGfUBB-1" value="Cliente acessa a consultoria" style="rounded=0;whiteSpace=wrap;html=1;" parent="1" vertex="1">
          <mxGeometry x="374" y="200" width="120" height="60" as="geometry" />
        </mxCell>
        <mxCell id="vun-Wb9-s5xzh4HGfUBB-2" value="&lt;font style=&quot;font-size: 18px;&quot;&gt;Cliente&lt;/font&gt;" style="ellipse;whiteSpace=wrap;html=1;" parent="1" vertex="1">
          <mxGeometry x="34" y="230" width="120" height="80" as="geometry" />
        </mxCell>
        <mxCell id="vun-Wb9-s5xzh4HGfUBB-3" value="Cliente informa problema" style="rounded=0;whiteSpace=wrap;html=1;" parent="1" vertex="1">
          <mxGeometry x="374" y="280" width="120" height="60" as="geometry" />
        </mxCell>
        <mxCell id="vun-Wb9-s5xzh4HGfUBB-6" value="" style="endArrow=none;html=1;rounded=0;" parent="1" edge="1">
          <mxGeometry width="50" height="50" relative="1" as="geometry">
            <mxPoint x="14" y="350" as="sourcePoint" />
            <mxPoint x="794" y="350" as="targetPoint" />
          </mxGeometry>
        </mxCell>
        <mxCell id="vun-Wb9-s5xzh4HGfUBB-7" value="&lt;span style=&quot;font-size: 18px;&quot;&gt;Gestão&lt;/span&gt;" style="ellipse;whiteSpace=wrap;html=1;" parent="1" vertex="1">
          <mxGeometry x="34" y="430" width="120" height="80" as="geometry" />
        </mxCell>
        <mxCell id="vun-Wb9-s5xzh4HGfUBB-19" style="edgeStyle=orthogonalEdgeStyle;rounded=0;orthogonalLoop=1;jettySize=auto;html=1;exitX=1;exitY=0.5;exitDx=0;exitDy=0;entryX=0;entryY=0.5;entryDx=0;entryDy=0;" parent="1" source="vun-Wb9-s5xzh4HGfUBB-9" target="vun-Wb9-s5xzh4HGfUBB-12" edge="1">
          <mxGeometry relative="1" as="geometry" />
        </mxCell>
        <mxCell id="vun-Wb9-s5xzh4HGfUBB-9" value="Identificar problema" style="rounded=0;whiteSpace=wrap;html=1;" parent="1" vertex="1">
          <mxGeometry x="314" y="490" width="120" height="60" as="geometry" />
        </mxCell>
        <mxCell id="vun-Wb9-s5xzh4HGfUBB-17" style="edgeStyle=orthogonalEdgeStyle;rounded=0;orthogonalLoop=1;jettySize=auto;html=1;exitX=0.5;exitY=1;exitDx=0;exitDy=0;entryX=0;entryY=0.5;entryDx=0;entryDy=0;" parent="1" source="vun-Wb9-s5xzh4HGfUBB-11" target="vun-Wb9-s5xzh4HGfUBB-9" edge="1">
          <mxGeometry relative="1" as="geometry" />
        </mxCell>
        <mxCell id="vun-Wb9-s5xzh4HGfUBB-18" style="edgeStyle=orthogonalEdgeStyle;rounded=0;orthogonalLoop=1;jettySize=auto;html=1;exitX=1;exitY=0.5;exitDx=0;exitDy=0;entryX=0;entryY=0.5;entryDx=0;entryDy=0;" parent="1" source="vun-Wb9-s5xzh4HGfUBB-11" target="vun-Wb9-s5xzh4HGfUBB-14" edge="1">
          <mxGeometry relative="1" as="geometry" />
        </mxCell>
        <mxCell id="vun-Wb9-s5xzh4HGfUBB-11" value="Checagem de dados" style="rhombus;whiteSpace=wrap;html=1;" parent="1" vertex="1">
          <mxGeometry x="194" y="390" width="140" height="100" as="geometry" />
        </mxCell>
        <mxCell id="vun-Wb9-s5xzh4HGfUBB-20" style="edgeStyle=orthogonalEdgeStyle;rounded=0;orthogonalLoop=1;jettySize=auto;html=1;exitX=1;exitY=0.5;exitDx=0;exitDy=0;entryX=0;entryY=0.5;entryDx=0;entryDy=0;" parent="1" source="vun-Wb9-s5xzh4HGfUBB-12" target="vun-Wb9-s5xzh4HGfUBB-13" edge="1">
          <mxGeometry relative="1" as="geometry" />
        </mxCell>
        <mxCell id="vun-Wb9-s5xzh4HGfUBB-24" style="edgeStyle=orthogonalEdgeStyle;rounded=0;orthogonalLoop=1;jettySize=auto;html=1;exitX=0.5;exitY=1;exitDx=0;exitDy=0;" parent="1" source="vun-Wb9-s5xzh4HGfUBB-12" target="vun-Wb9-s5xzh4HGfUBB-22" edge="1">
          <mxGeometry relative="1" as="geometry" />
        </mxCell>
        <mxCell id="vun-Wb9-s5xzh4HGfUBB-12" value="Buscar Solução" style="rhombus;whiteSpace=wrap;html=1;" parent="1" vertex="1">
          <mxGeometry x="474" y="470" width="140" height="100" as="geometry" />
        </mxCell>
        <mxCell id="vun-Wb9-s5xzh4HGfUBB-21" style="edgeStyle=orthogonalEdgeStyle;rounded=0;orthogonalLoop=1;jettySize=auto;html=1;exitX=0.25;exitY=0;exitDx=0;exitDy=0;entryX=1;entryY=0.75;entryDx=0;entryDy=0;" parent="1" source="vun-Wb9-s5xzh4HGfUBB-13" target="vun-Wb9-s5xzh4HGfUBB-14" edge="1">
          <mxGeometry relative="1" as="geometry" />
        </mxCell>
        <mxCell id="vun-Wb9-s5xzh4HGfUBB-33" style="edgeStyle=orthogonalEdgeStyle;rounded=0;orthogonalLoop=1;jettySize=auto;html=1;exitX=0.75;exitY=0;exitDx=0;exitDy=0;entryX=1;entryY=0.25;entryDx=0;entryDy=0;" parent="1" source="vun-Wb9-s5xzh4HGfUBB-13" target="vun-Wb9-s5xzh4HGfUBB-14" edge="1">
          <mxGeometry relative="1" as="geometry" />
        </mxCell>
        <mxCell id="vun-Wb9-s5xzh4HGfUBB-38" style="edgeStyle=orthogonalEdgeStyle;rounded=0;orthogonalLoop=1;jettySize=auto;html=1;exitX=0.5;exitY=0;exitDx=0;exitDy=0;entryX=1;entryY=0.5;entryDx=0;entryDy=0;" parent="1" source="vun-Wb9-s5xzh4HGfUBB-13" target="vun-Wb9-s5xzh4HGfUBB-14" edge="1">
          <mxGeometry relative="1" as="geometry" />
        </mxCell>
        <mxCell id="vun-Wb9-s5xzh4HGfUBB-13" value="Registrar atendimento" style="rounded=0;whiteSpace=wrap;html=1;" parent="1" vertex="1">
          <mxGeometry x="674" y="490" width="120" height="60" as="geometry" />
        </mxCell>
        <mxCell id="vun-Wb9-s5xzh4HGfUBB-14" value="Encerrar atendimento" style="rounded=0;whiteSpace=wrap;html=1;" parent="1" vertex="1">
          <mxGeometry x="394" y="410" width="120" height="60" as="geometry" />
        </mxCell>
        <mxCell id="vun-Wb9-s5xzh4HGfUBB-15" style="edgeStyle=orthogonalEdgeStyle;rounded=0;orthogonalLoop=1;jettySize=auto;html=1;exitX=0.5;exitY=1;exitDx=0;exitDy=0;entryX=0.5;entryY=0;entryDx=0;entryDy=0;" parent="1" source="vun-Wb9-s5xzh4HGfUBB-3" target="vun-Wb9-s5xzh4HGfUBB-11" edge="1">
          <mxGeometry relative="1" as="geometry" />
        </mxCell>
        <mxCell id="vun-Wb9-s5xzh4HGfUBB-28" style="edgeStyle=orthogonalEdgeStyle;rounded=0;orthogonalLoop=1;jettySize=auto;html=1;exitX=1;exitY=0.5;exitDx=0;exitDy=0;entryX=0;entryY=0.5;entryDx=0;entryDy=0;" parent="1" source="vun-Wb9-s5xzh4HGfUBB-22" target="vun-Wb9-s5xzh4HGfUBB-27" edge="1">
          <mxGeometry relative="1" as="geometry" />
        </mxCell>
        <mxCell id="vun-Wb9-s5xzh4HGfUBB-22" value="Analisar melhor solução" style="rhombus;whiteSpace=wrap;html=1;" parent="1" vertex="1">
          <mxGeometry x="224" y="621" width="140" height="100" as="geometry" />
        </mxCell>
        <mxCell id="vun-Wb9-s5xzh4HGfUBB-23" value="" style="endArrow=none;html=1;rounded=0;" parent="1" edge="1">
          <mxGeometry width="50" height="50" relative="1" as="geometry">
            <mxPoint x="14" y="580" as="sourcePoint" />
            <mxPoint x="814" y="580" as="targetPoint" />
          </mxGeometry>
        </mxCell>
        <mxCell id="vun-Wb9-s5xzh4HGfUBB-25" value="&lt;font style=&quot;font-size: 14px;&quot;&gt;Planejamento estratégico&lt;/font&gt;" style="ellipse;whiteSpace=wrap;html=1;" parent="1" vertex="1">
          <mxGeometry x="34" y="621" width="120" height="80" as="geometry" />
        </mxCell>
        <mxCell id="vun-Wb9-s5xzh4HGfUBB-35" style="edgeStyle=orthogonalEdgeStyle;rounded=0;orthogonalLoop=1;jettySize=auto;html=1;exitX=0.5;exitY=1;exitDx=0;exitDy=0;" parent="1" source="vun-Wb9-s5xzh4HGfUBB-26" target="vun-Wb9-s5xzh4HGfUBB-34" edge="1">
          <mxGeometry relative="1" as="geometry" />
        </mxCell>
        <mxCell id="vun-Wb9-s5xzh4HGfUBB-26" value="Preparar equipamento" style="rounded=0;whiteSpace=wrap;html=1;" parent="1" vertex="1">
          <mxGeometry x="594" y="641" width="120" height="60" as="geometry" />
        </mxCell>
        <mxCell id="vun-Wb9-s5xzh4HGfUBB-29" style="edgeStyle=orthogonalEdgeStyle;rounded=0;orthogonalLoop=1;jettySize=auto;html=1;exitX=1;exitY=0.5;exitDx=0;exitDy=0;entryX=0;entryY=0.5;entryDx=0;entryDy=0;" parent="1" source="vun-Wb9-s5xzh4HGfUBB-27" target="vun-Wb9-s5xzh4HGfUBB-26" edge="1">
          <mxGeometry relative="1" as="geometry" />
        </mxCell>
        <mxCell id="vun-Wb9-s5xzh4HGfUBB-37" style="edgeStyle=orthogonalEdgeStyle;rounded=0;orthogonalLoop=1;jettySize=auto;html=1;exitX=0.5;exitY=0;exitDx=0;exitDy=0;entryX=0.5;entryY=1;entryDx=0;entryDy=0;" parent="1" source="vun-Wb9-s5xzh4HGfUBB-27" target="vun-Wb9-s5xzh4HGfUBB-13" edge="1">
          <mxGeometry relative="1" as="geometry">
            <Array as="points">
              <mxPoint x="484" y="610" />
              <mxPoint x="734" y="610" />
            </Array>
          </mxGeometry>
        </mxCell>
        <mxCell id="vun-Wb9-s5xzh4HGfUBB-27" value="Fazer orçamento" style="rounded=0;whiteSpace=wrap;html=1;" parent="1" vertex="1">
          <mxGeometry x="424" y="641" width="120" height="60" as="geometry" />
        </mxCell>
        <mxCell id="vun-Wb9-s5xzh4HGfUBB-32" style="edgeStyle=orthogonalEdgeStyle;rounded=0;orthogonalLoop=1;jettySize=auto;html=1;exitX=1;exitY=0.5;exitDx=0;exitDy=0;entryX=0.75;entryY=1;entryDx=0;entryDy=0;" parent="1" source="vun-Wb9-s5xzh4HGfUBB-30" target="vun-Wb9-s5xzh4HGfUBB-13" edge="1">
          <mxGeometry relative="1" as="geometry" />
        </mxCell>
        <mxCell id="vun-Wb9-s5xzh4HGfUBB-30" value="Implementar solução" style="rounded=0;whiteSpace=wrap;html=1;" parent="1" vertex="1">
          <mxGeometry x="594" y="880" width="120" height="60" as="geometry" />
        </mxCell>
        <mxCell id="vun-Wb9-s5xzh4HGfUBB-36" style="edgeStyle=orthogonalEdgeStyle;rounded=0;orthogonalLoop=1;jettySize=auto;html=1;exitX=0.5;exitY=1;exitDx=0;exitDy=0;entryX=0.5;entryY=0;entryDx=0;entryDy=0;" parent="1" source="vun-Wb9-s5xzh4HGfUBB-34" target="vun-Wb9-s5xzh4HGfUBB-30" edge="1">
          <mxGeometry relative="1" as="geometry" />
        </mxCell>
        <mxCell id="vun-Wb9-s5xzh4HGfUBB-34" value="Comprar equipamentos para a solução" style="rounded=0;whiteSpace=wrap;html=1;" parent="1" vertex="1">
          <mxGeometry x="594" y="760" width="120" height="60" as="geometry" />
        </mxCell>
        <mxCell id="vun-Wb9-s5xzh4HGfUBB-39" value="&lt;b&gt;&lt;font style=&quot;font-size: 24px;&quot;&gt;Fluxograma de atendimento da consultoria de T.I&lt;/font&gt;&lt;/b&gt;" style="text;html=1;align=center;verticalAlign=middle;whiteSpace=wrap;rounded=0;" parent="1" vertex="1">
          <mxGeometry x="121" y="70" width="586" height="30" as="geometry" />
        </mxCell>
      </root>
    </mxGraphModel>
  </diagram>
</mxfile>
